# xmcd
#
# Track frame offsets:
# 150
# 12375
# 25476
# 37997
# 50978
# 63634
# 76490
# 88114
# 100174
# 112852
# 124620
# 137632
# 149506
# 162246
# 173840
# 186359
# 198776
# 211469
# 223957
# 236351
#
# Disc length: 3314 seconds
#
#
# Revision: 0
# Processed by: cddbd v1.5.2PL0 Copyright (c) Steve Scherf et al.
# Submitted via: FreeRIP 2.96 
#
DISCID=250cf014
DTITLE=Roy Acuff - Country Music Legends [CD1]
DYEAR=2006
DGENRE=Country
TTITLE0=Blue Eyes Crying in the Rain
TTITLE1=Great Speckle Bird
TTITLE2=Wreck on the Highway
TTITLE3=Wabash Cannonball
TTITLE4=The Precious Jewel
TTITLE5=Night Train to Memphis
TTITLE6=Low and Lonely
TTITLE7=I'll Forgive You, But I Can't Forget
TTITLE8=We Live in Two Different Worlds
TTITLE9=Waltz of the Wind
TTITLE10=Tennessee Waltz
TTITLE11=Just to Ease My Worried Mind
TTITLE12=It Won't Be Long (Till I'll Be Leaving)
TTITLE13=Fireball Mail
TTITLE14=The Prodigal Son
TTITLE15=Freight Train Blues
TTITLE16=Worried Mind
TTITLE17=Eyes Are Watching You
TTITLE18=That Glory Bound Train
TTITLE19=I Saw the Light
EXTD=
EXTT0=
EXTT1=
EXTT2=
EXTT3=
EXTT4=
EXTT5=
EXTT6=
EXTT7=
EXTT8=
EXTT9=
EXTT10=
EXTT11=
EXTT12=
EXTT13=
EXTT14=
EXTT15=
EXTT16=
EXTT17=
EXTT18=
EXTT19=
PLAYORDER=
